<svg xmlns="http://www.w3.org/2000/svg" viewBox="0 0 560 168">
<defs><linearGradient id="bg" x1="0" y1="0" x2="0" y2="1">
  <stop offset="0" stop-color="#0E2240"/><stop offset="1" stop-color="#081320"/>
</linearGradient></defs>
<rect width="560" height="168" rx="20" fill="url(#bg)"/>
<g transform="translate(154.19,55.00)"><g>
  <path d="M 22 52 L 34 31 L 47 52 Z" fill="#2A4A73"/>
  <path d="M 2 52 L 18 24 L 34 52 Z" fill="#F4791F"/>
  <path d="M 18 24 L 29 13 L 35 18 L 47 7" fill="none" stroke="#F4791F" stroke-width="4.6" stroke-linecap="round" stroke-linejoin="round"/>
  <circle cx="50.5" cy="5.5" r="4" fill="#F4791F"/>
  <g fill="#E9ECEF">
    <circle cx="8"  cy="11" r="1.5"/>
    <circle cx="55" cy="20" r="1.2"/>
    <circle cx="44" cy="26" r="0.9" opacity="0.7"/>
  </g>
</g></g>
<g transform="translate(236.19,107.00) scale(0.026136)">
  <path d="M78 0V-1760H543Q689 -1760 774.5 -1695.0Q860 -1630 897.0 -1510.0Q934 -1390 934 -1224Q934 -1064 903.0 -945.5Q872 -827 792.5 -762.0Q713 -697 567 -697H424V0ZM424 -1013H444Q542 -1013 564.0 -1068.0Q586 -1123 586 -1230Q586 -1330 564.5 -1384.5Q543 -1439 463 -1439H424Z M1525 16Q1314 16 1202.5 -111.5Q1091 -239 1091 -480V-1316Q1091 -1542 1201.5 -1659.0Q1312 -1776 1525 -1776Q1738 -1776 1848.5 -1659.0Q1959 -1542 1959 -1316V-480Q1959 -239 1847.5 -111.5Q1736 16 1525 16ZM1528 -308Q1608 -308 1608 -463V-1322Q1608 -1452 1530 -1452Q1442 -1452 1442 -1319V-461Q1442 -379 1462.0 -343.5Q1482 -308 1528 -308Z M2299 0 2110 -1760H2454L2551 -649L2650 -1760H2978L3072 -649L3166 -1760H3514L3322 0H2900L2812 -847L2728 0Z" fill="#E9ECEF"/>
  <path d="M3841 0 3624 -1761H3959L4088 -563L4203 -1761H4538L4321 0Z M4652 0 4822 -1760H5419L5586 0H5253L5228 -284H5016L4994 0ZM5041 -565H5201L5124 -1460H5108Z M5754 0V-1760H6106V-300H6468V0Z" fill="#F4791F"/>
</g>
</svg>